<?xml version="1.0" encoding="UTF-8" standalone="no"?>
<!-- Created with Inkscape (http://www.inkscape.org/) -->

<svg
   xmlns:dc="http://purl.org/dc/elements/1.1/"
   xmlns:cc="http://creativecommons.org/ns#"
   xmlns:rdf="http://www.w3.org/1999/02/22-rdf-syntax-ns#"
   xmlns:svg="http://www.w3.org/2000/svg"
   xmlns="http://www.w3.org/2000/svg"
   version="1.1"
   width="50"
   height="50"
   viewBox="0 0 50 50"
   id="svg2">
  <metadata
     id="metadata3926">
    <rdf:RDF>
      <cc:Work
         rdf:about="">
        <dc:format>image/svg+xml</dc:format>
        <dc:type
           rdf:resource="http://purl.org/dc/dcmitype/StillImage" />
        <dc:title></dc:title>
      </cc:Work>
    </rdf:RDF>
  </metadata>
  <defs
     id="defs3924" />
  <g
     transform="matrix(0.99998964,0,0,1.2384385,-1.4451497,-9.1307555)"
     id="g4537">
    <path
       d="m 17.030599,25.615669 c 0,-2.451244 0,-4.902489 0,-7.353732 4.902488,0 9.804976,0 14.707465,0 0,3.676866 0,7.353732 0,11.030598 -2.451244,0 -4.902489,0 -7.353733,0 0,-1.225622 0,-2.451244 0,-3.676866 1.225623,0 2.451244,0 3.676866,0 0,-1.225623 0,-2.451244 0,-3.676866 -2.451243,0 -4.902488,0 -7.353732,0 0,2.451243 0,4.902488 0,7.353732 -2.451244,0 -4.902488,0 -7.353732,0 0,2.451244 0,4.902488 0,7.353732 -1.225623,0 -2.451244,0 -3.676867,0 0,1.225623 0,2.451244 0,3.676867 2.451244,0 4.902489,0 7.353733,0 0,-2.451244 0,-4.902489 0,-7.353733 4.902488,0 9.804976,0 14.707465,0 0,3.676866 0,7.353733 0,11.030599 -1.225623,0 -2.451244,0 -3.676867,0 0,-2.451244 0,-4.902489 0,-7.353733 -2.451243,0 -4.902488,0 -7.353732,0 0,1.225623 0,2.451244 0,3.676867 1.225622,0 2.451244,0 3.676866,0 0,1.225622 0,2.451243 0,3.676866 0,0 -15.933087,0 -18.384331,0 0,-3.676866 0,-7.353733 0,-11.030599 1.225622,0 2.451244,0 3.676866,0 0,-3.676866 0,-7.353732 0,-11.030598 -1.225622,0 -2.451244,0 -3.676866,0 0,-1.225623 0,-2.451245 0,-3.676867 2.451244,0 4.902489,0 7.353733,0 0,2.451244 0,4.902489 0,7.353733 1.225622,0 2.451244,0 3.676866,0 z"
       id="path3037"
       style="fill:#ffffff;fill-opacity:1" />
    <path
       d="m 20.707465,18.425379 c 0,-2.451244 0,-4.902489 0,-7.353732 -4.902488,0 -9.804976,0 -14.707465,0 0,3.676866 0,7.353732 0,11.030598 2.4512439,0 4.902489,0 7.353733,0 0,-1.225622 0,-2.451244 0,-3.676866 -1.225623,0 -2.451244,0 -3.6768661,0 0,-1.225623 0,-2.451244 0,-3.676866 2.4512431,0 4.9024881,0 7.3537321,0 0,2.451243 0,4.902488 0,7.353732 2.451244,0 4.902488,0 7.353732,0 L 28,22.110045 28.0612,14.748558 c 1.225622,0 2.451244,0 3.676866,0 0,-1.225623 0,-2.451245 0,-3.676867 -2.451244,0 -4.902489,0 -7.353733,0 0,2.451244 0,4.902489 0,7.353733 -1.225622,0 -2.451244,0 -3.676866,0 z"
       id="path3037-1"
       style="fill:#ffffff;fill-opacity:1" />
    <path
       d="m 43.169097,25.758282 c -2.451244,0 -4.902489,0 -7.353731,0 0,-4.902488 0,-9.804976 0,-14.707466 3.676865,0 7.353731,0 11.030597,0 0,2.451244 0,4.90249 0,7.353734 -1.225622,0 -2.451244,0 -3.676866,0 0,-1.225623 0,-2.451244 0,-3.676867 -1.225623,0 -2.451244,0 -3.676866,0 0,2.451244 0,4.902489 0,7.353733 2.451243,0 4.902488,0 7.353732,0 0,2.451244 0,4.902488 0,7.353732 0.01906,0.889089 0.0527,1.418046 0.04261,1.912099 l -0.03481,1.70357 -3.701752,0.03904 0.01713,-3.654712 c 0,-1.225622 0,-2.451244 0,-3.676866 z"
       id="path3037-1-9"
       style="fill:#ffffff;fill-opacity:1" />
    <path
       d="m 42.818824,40.345764 c 0,-2.451244 0,-4.902489 0,-7.353732 -4.902488,0 -9.804976,0 -14.707465,0 0,3.676866 0,7.353732 0,11.030598 2.451244,0 4.902489,0 7.353733,0 0,-1.225622 0,-2.451244 0,-3.676866 -1.225623,0 -2.451244,0 -3.676866,0 0,-1.225623 0,-2.451244 0,-3.676866 2.451243,0 4.902488,0 7.353732,0 0,2.451243 0,4.902488 0,7.353732 l 3.610316,0.04557 0.06655,-3.72239 z"
       id="path3037-1-5"
       style="fill:#ffffff;fill-opacity:1" />
    <rect
       width="3.4313726"
       height="3.7254901"
       x="35.784313"
       y="29.313725"
       id="rect4499"
       style="fill:#ffffff;fill-opacity:1;stroke:none" />
    <rect
       width="4.1176472"
       height="3.6274509"
       x="42.772774"
       y="32.992031"
       id="rect4499-4"
       style="fill:#ffffff;fill-opacity:1;stroke:none" />
    <rect
       width="4.7908411"
       height="3.7254901"
       x="42.099583"
       y="40.342709"
       id="rect4499-1"
       style="fill:#ffffff;fill-opacity:1;stroke:none" />
  </g>
</svg>
