<?xml version="1.0" standalone="no"?>
<!-- Icon made by Freepik from www.flaticon.com -->
<!DOCTYPE svg PUBLIC "-//W3C//DTD SVG 20010904//EN"
 "http://www.w3.org/TR/2001/REC-SVG-20010904/DTD/svg10.dtd">
<svg version="1.0" xmlns="http://www.w3.org/2000/svg"
 width="512.000000pt" height="512.000000pt" viewBox="0 0 512.000000 512.000000"
 preserveAspectRatio="xMidYMid meet">

<g transform="translate(0.000000,512.000000) scale(0.100000,-0.100000)"
fill="#000000" stroke="none">
<path d="M0 2560 l0 -2560 2560 0 2560 0 0 2560 0 2560 -2560 0 -2560 0 0
-2560z m2793 1775 c885 -116 1557 -882 1557 -1775 0 -485 -189 -931 -541
-1277 -108 -105 -165 -152 -281 -227 -530 -344 -1201 -380 -1768 -96 -278 139
-532 367 -703 631 -383 590 -383 1349 1 1939 134 207 325 398 533 533 355 230
782 327 1202 272z"/>
<path d="M2460 3710 l0 -210 100 0 100 0 0 210 0 210 -100 0 -100 0 0 -210z"/>
<path d="M1882 3745 c-41 -23 -78 -47 -83 -52 -5 -5 31 -78 92 -183 55 -96
102 -176 104 -178 2 -2 44 19 94 47 l90 52 -102 176 c-56 97 -107 177 -112
179 -6 1 -43 -17 -83 -41z"/>
<path d="M1417 3308 c-80 -130 -89 -150 -76 -162 8 -7 89 -56 181 -109 l167
-96 52 90 c28 50 50 92 48 94 -6 5 -296 173 -330 190 -27 14 -29 14 -42 -7z"/>
<path d="M2372 3270 c-125 -33 -225 -92 -327 -195 -151 -150 -215 -304 -215
-515 0 -211 64 -365 215 -516 77 -78 105 -98 185 -137 134 -65 206 -80 360
-74 106 3 137 8 206 34 l81 29 79 -30 c67 -24 98 -30 201 -34 153 -6 239 12
366 76 76 37 108 61 182 136 151 151 215 306 215 516 0 210 -64 365 -215 516
-74 75 -106 99 -182 136 -127 64 -213 82 -366 76 -104 -4 -134 -9 -202 -35
-75 -28 -82 -29 -115 -15 -131 55 -328 69 -468 32z m272 -196 c12 -4 6 -17
-27 -57 -59 -73 -114 -182 -137 -273 -25 -95 -27 -260 -4 -354 20 -86 84 -217
139 -284 52 -64 50 -66 -64 -66 -228 0 -429 154 -495 379 -9 32 -16 91 -16
141 0 233 136 421 360 497 63 22 205 32 244 17z m687 -10 c177 -52 311 -186
363 -363 9 -32 16 -91 16 -141 0 -145 -50 -268 -150 -369 -98 -99 -224 -151
-370 -151 -145 0 -268 50 -369 150 -99 98 -151 224 -151 370 0 233 136 420
360 497 81 28 219 31 301 7z"/>
<path d="M1200 2555 l0 -105 205 0 205 0 0 105 0 105 -205 0 -205 0 0 -105z"/>
<path d="M1516 2080 c-93 -55 -173 -103 -178 -108 -9 -9 73 -165 92 -177 5 -3
344 186 358 200 4 3 -97 186 -101 184 -1 0 -78 -45 -171 -99z"/>
<path d="M1898 1623 c-53 -93 -98 -174 -100 -182 -2 -8 30 -33 81 -63 68 -39
87 -46 96 -36 7 7 55 88 108 180 l96 167 -88 51 c-49 27 -90 50 -93 50 -2 0
-47 -75 -100 -167z"/>
<path d="M2460 1400 l0 -210 100 0 100 0 0 210 0 210 -100 0 -100 0 0 -210z"/>
</g>
</svg>
