#define standardcursor_width 40
#define standardcursor_height 40
static unsigned char standardcursor_bits[] = {
 0xff,0xff,0xff,0xff,0x00,0xff,0xff,0xff,0xff,0x01,0xff,0xff,0xff,0xff,0x03,
 0xff,0xff,0xff,0xff,0x03,0xff,0xff,0xff,0xff,0x03,0xff,0xff,0xff,0xff,0x07,
 0xff,0xff,0xff,0xff,0x07,0xff,0xff,0xff,0xff,0x03,0xff,0xff,0xff,0xff,0x03,
 0xff,0xff,0xff,0xff,0x03,0xff,0xff,0xff,0xff,0x01,0xff,0xff,0xff,0xff,0x00,
 0xff,0xff,0x3f,0x00,0x00,0xff,0xff,0x7f,0x00,0x00,0xff,0xff,0xff,0x00,0x00,
 0xff,0xff,0xff,0x01,0x00,0xff,0xff,0xff,0x03,0x00,0xff,0xff,0xff,0x07,0x00,
 0xff,0xff,0xff,0x0f,0x00,0xff,0xff,0xff,0x1f,0x00,0xff,0xff,0xff,0x3f,0x00,
 0xff,0xff,0xff,0x7f,0x00,0xff,0xef,0xff,0xff,0x00,0xff,0xcf,0xff,0xff,0x01,
 0xff,0x8f,0xff,0xff,0x03,0xff,0x0f,0xff,0xff,0x07,0xff,0x0f,0xfe,0xff,0x07,
 0xff,0x0f,0xfc,0xff,0x0f,0xff,0x0f,0xf8,0xff,0x0f,0xff,0x0f,0xf0,0xff,0x0f,
 0xff,0x0f,0xe0,0xff,0x0f,0xff,0x0f,0xc0,0xff,0x0f,0xfe,0x07,0x80,0xff,0x07,
 0xfc,0x03,0x00,0xff,0x07,0x60,0x00,0x00,0xfe,0x03,0x00,0x00,0x00,0xf8,0x00,
 0x00,0x00,0x00,0x00,0x00,0x00,0x00,0x00,0x00,0x00,0x00,0x00,0x00,0x00,0x00,
 0x00,0x00,0x00,0x00,0x00};